<?xml version="1.0" encoding="utf-8"?>
<!-- Generated by IcoMoon.io -->
<svg version="1.1" xmlns="http://www.w3.org/2000/svg" xmlns:xlink="http://www.w3.org/1999/xlink" width="752" height="160" viewBox="0 0 752 160">
<svg id="icon-dglasses" width="45" height="32" viewBox="0 0 45 32" x="0" y="0">
<path fill="#ffb630" d="M13.428 8.050c1.715 0 2.144 0.857 3.286 0.714 1.143-0.143 0.143-2.143-0.857-3.571s-3.285-0.714-5 0.286c-1.714 1-10.821 6.536-10.821 6.536h7.964c0-0.001 3.714-3.965 5.428-3.965zM0 13.049v13c0 1.104 0.895 2 2 2 0 0 7.71 0 16.083 0 1.502 0 2.875-4.667 4.417-4.667 1.339 0 2.346 4.667 3.666 4.667 8.893 0 16.833 0 16.833 0 1.105 0 2.001-0.896 2.001-2v-13h-45zM18 22.050c0 1.656-1.344 3-3 3h-9c-1.657 0-3-1.344-3-3v-3c0-1.657 1.343-3 3-3h9c1.656 0 3 1.343 3 3v3zM42 22.050c0 1.656-1.344 3-3 3h-9c-1.657 0-3-1.344-3-3v-3c0-1.657 1.343-3 3-3h9c1.656 0 3 1.343 3 3v3zM28.285 8.764c1.143 0.143 1.571-0.714 3.286-0.714s5.429 3.964 5.429 3.964h7.964c0 0-9.107-5.536-10.821-6.536-1.715-1-4-1.714-5-0.286s-2 3.429-0.858 3.572z"></path>
</svg>
<svg id="icon-bookmark-o" width="20" height="28" viewBox="0 0 20 28" x="0" y="48">
<path d="M18 4h-16v19.406l8-7.672 1.391 1.328 6.609 6.344v-19.406zM18.188 2c0.234 0 0.469 0.047 0.688 0.141 0.688 0.266 1.125 0.906 1.125 1.609v20.141c0 0.703-0.438 1.344-1.125 1.609-0.219 0.094-0.453 0.125-0.688 0.125-0.484 0-0.938-0.172-1.297-0.5l-6.891-6.625-6.891 6.625c-0.359 0.328-0.812 0.516-1.297 0.516-0.234 0-0.469-0.047-0.688-0.141-0.688-0.266-1.125-0.906-1.125-1.609v-20.141c0-0.703 0.438-1.344 1.125-1.609 0.219-0.094 0.453-0.141 0.688-0.141h16.375z"></path>
</svg>
<svg id="icon-calendar" width="20" height="20" viewBox="0 0 20 20" x="0" y="92">
<path fill="#ffb630" d="M17 3h-1v2h-3v-2h-6v2h-3v-2h-1c-1.101 0-2 0.9-2 2v12c0 1.1 0.899 2 2 2h14c1.1 0 2-0.9 2-2v-12c0-1.1-0.9-2-2-2zM17 17h-14v-8h14v8zM6.5 1h-2v3.5h2v-3.5zM15.5 1h-2v3.5h2v-3.5z"></path>
</svg>
<svg id="icon-pencil" width="32" height="32" viewBox="0 0 32 32" x="0" y="128">
<path fill="#ffb630" d="M27 0c2.761 0 5 2.239 5 5 0 1.126-0.372 2.164-1 3l-2 2-7-7 2-2c0.836-0.628 1.874-1 3-1zM2 23l-2 9 9-2 18.5-18.5-7-7-18.5 18.5zM22.362 11.362l-14 14-1.724-1.724 14-14 1.724 1.724z"></path>
</svg>
</svg>
